<svg xmlns="http://www.w3.org/2000/svg" viewBox="0 0 200 200"><path d="M 145.366,178.130 C 141.830,180.167 138.542,182.636 135.583,185.490 C 135.478,185.590 135.373,185.691 135.269,185.792 C 115.595,204.760 84.431,204.733 64.791,185.730 C 58.882,180.012 51.658,175.833 43.755,173.560 C 43.615,173.520 43.476,173.480 43.336,173.440 C 17.073,165.886 1.515,138.883 8.151,112.374 C 10.148,104.396 10.155,96.051 8.173,88.071 C 8.138,87.930 8.102,87.788 8.067,87.647 C 1.478,61.126 17.083,34.151 43.360,26.643 C 51.267,24.384 58.498,20.218 64.417,14.510 C 64.522,14.410 64.627,14.309 64.731,14.208 C 84.405,-4.760 115.569,-4.733 135.209,14.270 C 141.118,19.988 148.342,24.167 156.245,26.440 C 156.385,26.480 156.524,26.520 156.664,26.560 C 182.927,34.114 198.485,61.117 191.849,87.626 C 189.852,95.604 189.845,103.949 191.827,111.929 C 191.862,112.070 191.898,112.212 191.933,112.353 C 198.522,138.874 182.917,165.849 156.640,173.357 C 152.687,174.486 148.902,176.093 145.366,178.130 Z" fill="#ffffff"/></svg>